<svg width="35" height="40" viewBox="0 0 35 40" fill="none" xmlns="http://www.w3.org/2000/svg">
<path d="M17.3771 0L0.160156 10.0955V29.9591L17.2679 40L34.5121 30.0136V25.1296L19.8054 33.3151C18.6595 33.8063 17.3771 32.9604 17.3771 31.7053V21.5007C17.3771 20.8186 17.7591 20.2183 18.3866 19.9181L34.5121 11.2415V10.0955L17.3771 0ZM12.5203 17.0259V31.105L5.01691 26.9304V12.8513L16.5039 5.94816L24.4166 10.1228L12.5203 17.0259ZM21.8518 28.0764L31.9473 22.5375V17.0805L21.3061 23.0832C21.1151 23.1924 21.006 23.3834 21.006 23.5744V27.558C21.006 28.0218 21.4698 28.2947 21.8518 28.0764Z" fill="url(#paint0_linear_17412_8683)"/>
<defs>
<linearGradient id="paint0_linear_17412_8683" x1="8.08984" y1="11.4518" x2="36.9374" y2="38.282" gradientUnits="userSpaceOnUse">
<stop stop-color="#04A4E6"/>
<stop offset="1" stop-color="#000051"/>
</linearGradient>
</defs>
</svg>
