<svg width="411" height="11" viewBox="0 0 411 11" fill="none" xmlns="http://www.w3.org/2000/svg">
<path d="M12.8839 3.26402C3.9803 6.29504 2.14194 6.76631 0.810758 7.84313C0.810756 8.27172 0.717885 8.33939 1.41442 8.76797C7.14877 6.86765 14.5556 4.18887 17.5275 4.86558C20.4993 5.5423 21.9853 11.3771 28.4862 10.956C32.9904 10.6643 31.7831 8.79053 41.2559 5.24906C43.9956 8.88076 48.8249 9.21629 51.7967 7.77546C52.7273 7.32432 55.0412 6.42596 56.9046 5.45207C57.9367 8.18185 62.2447 9.10634 64.7522 8.18149C67.0311 7.34096 69.0707 6.1739 72.2283 5.24906C80.4938 10.3244 78.7292 7.2792 90.4773 4.68513C98.232 12.0839 104.083 6.6476 113.138 4.79791C121.914 12.2869 127.068 7.4371 135.984 4.79791C140.767 10.6853 145.085 6.71527 153.676 4.21143C164.263 9.67027 166.213 5.72276 175.547 4.03097C183.116 10.956 186.506 4.18887 196.536 4.39188C200.483 7.97848 205.146 7.2943 213.206 4.48211C213.206 4.48211 214.846 5.72334 217.014 5.90322C220.264 6.17295 220.264 5.49719 225.976 4.18887C228.112 3.69958 229.52 3.29292 232.987 3.15124V1.57223C230.01 1.80296 227.462 1.7122 225.186 2.33918C219.496 3.90725 217.833 3.33832 216.735 2.49708C216.329 2.18639 216.443 1.87643 216.085 1.57223C213.67 -0.480444 207.448 3.17379 201.829 3.82794C198.532 -0.00677669 189.524 1.14365 181.398 3.94074C181.398 3.94074 179.169 1.59297 176.476 1.14366C171.878 0.376722 167.653 2.27151 162.22 3.94074C159.757 4.69759 155.905 1.23388 153.258 1.23388C149.264 1.23388 141.138 4.61745 141.138 4.61745C141.138 4.61745 141.011 2.64853 138.445 1.91059C133.291 0.428475 125.954 4.93326 121.914 5.74531C117.741 6.58423 119.36 3.21629 115.227 1.95571C111.095 0.695128 100.229 5.45207 97.4891 5.5423C95.8625 5.59587 94.9351 2.27151 91.6382 1.91059C86.1235 1.30689 77.5683 4.93326 77.5683 4.93326C77.5683 4.93326 75.6645 2.70009 72.2283 2.27151C68.1385 1.7614 62.2447 5.15883 62.2447 5.15883C62.2447 5.15883 62.8483 2.27151 58.8549 1.70758C56.4454 1.36733 46.8746 5.65509 46.8746 5.65509C46.8746 5.65509 45.0979 3.28024 41.9989 2.47452C38.2376 1.49662 30.4365 6.73783 27.1396 8.29427C25.1944 9.21257 21.7876 0.233013 12.8839 3.26402Z" fill="url(#paint0_linear_9782_43046)"/>
<defs>
<linearGradient id="paint0_linear_9782_43046" x1="0.806642" y1="5.96543" x2="233.6" y2="41.1251" gradientUnits="userSpaceOnUse">
<stop stop-color="#294393"/>
<stop offset="1" stop-color="#04A4E6"/>
</linearGradient>
</defs>
</svg>
