<svg width="97" height="40" viewBox="0 0 97 40" fill="none" xmlns="http://www.w3.org/2000/svg">
<path d="M1.23486 23.8103V0.3688H7.57409V18.6955H16.6095V23.8103H1.23486ZM42.3193 12.0575C42.3193 13.864 42.1001 15.5101 41.6615 16.9959C41.2335 18.471 40.5594 19.743 39.6391 20.812C38.7192 21.8809 37.537 22.704 36.0927 23.2812C34.6481 23.8477 32.9203 24.131 30.9088 24.131C28.9402 24.131 27.2337 23.8477 25.7893 23.2812C24.3556 22.704 23.1734 21.8862 22.2425 20.828C21.3117 19.7591 20.6216 18.4817 20.1723 16.9959C19.7229 15.5101 19.4982 13.8533 19.4982 12.0254C19.4982 9.58825 19.8995 7.47178 20.7019 5.67601C21.515 3.86952 22.7668 2.47455 24.4572 1.49114C26.1477 0.497048 28.3089 0 30.9409 0C33.6157 0 35.7877 0.497048 37.4567 1.49114C39.1366 2.48524 40.3669 3.88554 41.1477 5.69203C41.9289 7.49852 42.3193 9.62032 42.3193 12.0575ZM26.1745 12.0575C26.1745 13.4685 26.3349 14.6817 26.6559 15.6972C26.9769 16.7126 27.4851 17.4929 28.1805 18.0381C28.876 18.5832 29.7854 18.8558 30.9088 18.8558C32.075 18.8558 33.0005 18.5832 33.6852 18.0381C34.3807 17.4929 34.8782 16.7126 35.1778 15.6972C35.4879 14.6817 35.6431 13.4685 35.6431 12.0575C35.6431 9.941 35.29 8.26812 34.5839 7.03887C33.8778 5.80962 32.6635 5.19498 30.9409 5.19498C29.7961 5.19498 28.8706 5.47289 28.1645 6.02872C27.4691 6.58458 26.9608 7.3756 26.6399 8.40177C26.3296 9.42793 26.1745 10.6465 26.1745 12.0575ZM55.9769 10.0853H66.1034V22.72C64.8946 23.1369 63.509 23.4789 61.9467 23.7462C60.3848 24.0027 58.748 24.131 57.0359 24.131C54.7786 24.131 52.7993 23.6927 51.0978 22.8162C49.3968 21.9397 48.07 20.6089 47.1179 18.8238C46.1659 17.028 45.6897 14.7619 45.6897 12.0254C45.6897 9.56687 46.1604 7.44507 47.1019 5.65996C48.0433 3.86415 49.4289 2.47991 51.2585 1.5072C53.0988 0.523793 55.3509 0.0320712 58.015 0.0320712C59.4809 0.0320712 60.8716 0.171047 62.1877 0.44896C63.5035 0.726873 64.6484 1.07962 65.622 1.5072L63.616 6.47768C62.7706 6.06079 61.8934 5.75081 60.9841 5.54773C60.0747 5.33395 59.0956 5.22705 58.0472 5.22705C56.6455 5.22705 55.5167 5.54236 54.6607 6.17306C53.8156 6.80372 53.2003 7.64815 52.8154 8.70639C52.4301 9.75394 52.2376 10.9137 52.2376 12.1857C52.2376 13.6395 52.4407 14.8688 52.8471 15.8735C53.2645 16.8676 53.8689 17.6266 54.6607 18.1503C55.4634 18.6634 56.4315 18.92 57.5655 18.92C57.9401 18.92 58.3948 18.8932 58.9298 18.8398C59.4754 18.7864 59.8874 18.7222 60.1657 18.6474V14.9756H55.9769V10.0853ZM92.8405 12.0575C92.8405 13.864 92.6213 15.5101 92.1824 16.9959C91.7547 18.471 91.0806 19.743 90.1603 20.812C89.2404 21.8809 88.0582 22.704 86.6135 23.2812C85.1692 23.8477 83.4414 24.131 81.4299 24.131C79.4611 24.131 77.7549 23.8477 76.3106 23.2812C74.8768 22.704 73.6943 21.8862 72.7638 20.828C71.8329 19.7591 71.1427 18.4817 70.6935 16.9959C70.244 15.5101 70.0194 13.8533 70.0194 12.0254C70.0194 9.58825 70.4207 7.47178 71.2231 5.67601C72.036 3.86952 73.2879 2.47455 74.9784 1.49114C76.6689 0.497048 78.8301 0 81.4621 0C84.1367 0 86.3086 0.497048 87.9779 1.49114C89.6574 2.48524 90.8881 3.88554 91.6689 5.69203C92.4501 7.49852 92.8405 9.62032 92.8405 12.0575ZM76.6955 12.0575C76.6955 13.4685 76.8562 14.6817 77.1772 15.6972C77.4979 16.7126 78.0062 17.4929 78.7015 18.0381C79.3972 18.5832 80.3066 18.8558 81.4299 18.8558C82.596 18.8558 83.5218 18.5832 84.2065 18.0381C84.9018 17.4929 85.3992 16.7126 85.6991 15.6972C86.0091 14.6817 86.1643 13.4685 86.1643 12.0575C86.1643 9.941 85.8112 8.26812 85.1052 7.03887C84.399 5.80962 83.1847 5.19498 81.4621 5.19498C80.3172 5.19498 79.3918 5.47289 78.6855 6.02872C77.9901 6.58458 77.4821 7.3756 77.1611 8.40177C76.8507 9.42793 76.6955 10.6465 76.6955 12.0575Z" fill="#B4B4B4"/>
<path d="M2.87982 29.9663C4.15827 29.9663 5.09112 30.2279 5.67836 30.7515C6.26563 31.2751 6.55925 32.0085 6.55925 32.952C6.55925 33.3807 6.4915 33.789 6.35598 34.1772C6.22498 34.5607 6.00813 34.9014 5.70545 35.1995C5.40282 35.4929 5.003 35.7253 4.50611 35.8968C4.01372 36.0683 3.40611 36.154 2.68335 36.154H1.62626V39.8639H0V29.9663H2.87982ZM2.77143 31.3134H1.62626V34.8H2.51393C3.02441 34.8 3.45808 34.7413 3.81495 34.6241C4.17181 34.5023 4.44286 34.3104 4.62809 34.0488C4.81328 33.7868 4.90589 33.4416 4.90589 33.0129C4.90589 32.4397 4.73199 32.0132 4.38414 31.7334C4.04082 31.4535 3.50325 31.3134 2.77143 31.3134ZM8.53788 39.8639V29.9663H10.1641V38.4829H14.3721V39.8639H8.53788ZM22.2256 39.8639L21.2566 37.1154H17.4688L16.4998 39.8639H14.7854L18.4716 29.9258H20.2741L23.9535 39.8639H22.2256ZM20.8365 35.7209L19.8946 33.0129C19.8585 32.8954 19.8065 32.7309 19.7388 32.5185C19.671 32.3018 19.6032 32.0829 19.5355 31.8618C19.4677 31.6363 19.4113 31.4466 19.3661 31.2933C19.3209 31.4783 19.2644 31.6859 19.1967 31.9162C19.1334 32.1416 19.0702 32.354 19.0069 32.5525C18.9482 32.7509 18.903 32.9046 18.8714 33.0129L17.9228 35.7209H20.8365ZM29.4828 31.2054C29.0085 31.2054 28.5838 31.2911 28.2089 31.4626C27.8384 31.6341 27.5245 31.8822 27.267 32.2073C27.0095 32.5277 26.813 32.9181 26.6775 33.3785C26.542 33.8342 26.4742 34.3487 26.4742 34.9219C26.4742 35.6892 26.5826 36.3503 26.7995 36.9056C27.0163 37.4562 27.346 37.8801 27.7888 38.1782C28.2315 38.4716 28.7916 38.6183 29.4692 38.6183C29.8893 38.6183 30.2982 38.5778 30.6957 38.4964C31.0932 38.415 31.5043 38.3045 31.929 38.1647V39.5457C31.5269 39.7037 31.1203 39.8186 30.7092 39.8909C30.2982 39.9631 29.8239 39.9992 29.2863 39.9992C28.2744 39.9992 27.4341 39.7895 26.7656 39.3699C26.1015 38.9499 25.6046 38.3588 25.2748 37.5959C24.9496 36.8334 24.7869 35.9395 24.7869 34.9153C24.7869 34.1659 24.8909 33.4799 25.0987 32.8571C25.3065 32.2343 25.6091 31.6972 26.0067 31.2459C26.4042 30.7902 26.8943 30.4403 27.4771 30.1966C28.0643 29.9485 28.7351 29.824 29.4896 29.824C29.9865 29.824 30.4744 29.8806 30.9532 29.9933C31.4366 30.1017 31.8838 30.2575 32.2949 30.4607L31.7257 31.8009C31.3823 31.6385 31.0232 31.4988 30.6483 31.3813C30.2733 31.2638 29.8849 31.2054 29.4828 31.2054ZM39.6674 39.8639H34.0567V29.9663H39.6674V31.3338H35.6827V34.0214H39.4165V35.3823H35.6827V38.4895H39.6674V39.8639ZM49.6212 39.8639H48.0019V35.3958H43.4348V39.8639H41.8085V29.9663H43.4348V34.0148H48.0019V29.9663H49.6212V39.8639ZM61.039 34.9014C61.039 35.6644 60.9419 36.3594 60.7476 36.9866C60.5581 37.6094 60.271 38.1465 59.8872 38.5978C59.503 39.0448 59.022 39.3899 58.4439 39.6337C57.8655 39.8774 57.188 39.9992 56.4109 39.9992C55.6206 39.9992 54.9337 39.8774 54.3512 39.6337C53.7727 39.3899 53.2918 39.0426 52.9079 38.5913C52.5281 38.1399 52.2436 37.6007 52.0541 36.9731C51.8642 36.3459 51.7693 35.6509 51.7693 34.8879C51.7693 33.8681 51.9365 32.979 52.2707 32.2208C52.6096 31.4579 53.1223 30.8668 53.8089 30.4469C54.5002 30.0229 55.3719 29.8105 56.4244 29.8105C57.4546 29.8105 58.3106 30.0203 58.9928 30.4403C59.6746 30.8599 60.1852 31.4513 60.5241 32.2139C60.8674 32.9721 61.039 33.8682 61.039 34.9014ZM53.4769 34.9014C53.4769 35.6644 53.581 36.3255 53.7888 36.8852C53.9966 37.4401 54.315 37.8692 54.7441 38.1713C55.1776 38.4694 55.7334 38.6183 56.4109 38.6183C57.0931 38.6183 57.6489 38.4694 58.078 38.1713C58.5071 37.8692 58.8234 37.4401 59.0264 36.8852C59.2298 36.3255 59.3314 35.6644 59.3314 34.9014C59.3314 33.7415 59.0987 32.8345 58.6335 32.1799C58.1726 31.521 57.4364 31.1915 56.4244 31.1915C55.747 31.1915 55.1889 31.3408 54.7507 31.6385C54.3172 31.9362 53.9966 32.3627 53.7888 32.9181C53.581 33.4686 53.4769 34.1298 53.4769 34.9014ZM63.1666 39.8639V29.9663H64.7929V38.4829H69.001V39.8639H63.1666ZM78.7587 34.8204C78.7587 35.9351 78.5509 36.8669 78.1353 37.6163C77.7197 38.361 77.1164 38.9229 76.3257 39.302C75.5355 39.6767 74.5823 39.8639 73.4663 39.8639H70.7152V29.9663H73.7646C74.7901 29.9663 75.6753 30.1513 76.4207 30.5217C77.1661 30.8869 77.742 31.4309 78.1488 32.1529C78.5553 32.8706 78.7587 33.7598 78.7587 34.8204ZM77.0645 34.8679C77.0645 34.0553 76.9356 33.3873 76.6782 32.8637C76.4254 32.3405 76.0504 31.9523 75.5534 31.6994C75.0611 31.4422 74.4534 31.3134 73.7307 31.3134H72.3415V38.5033H73.4937C74.6908 38.5033 75.5851 38.1987 76.1768 37.5894C76.7687 36.98 77.0645 36.0726 77.0645 34.8679ZM86.5038 39.8639H80.8929V29.9663H86.5038V31.3338H82.5191V34.0214H86.2529V35.3823H82.5191V38.4895H86.5038V39.8639ZM91.4299 29.9663C92.2837 29.9663 92.9882 30.0703 93.544 30.2779C94.1042 30.4855 94.5198 30.8011 94.7908 31.2255C95.0665 31.6498 95.2042 32.1891 95.2042 32.8436C95.2042 33.3311 95.1136 33.7463 94.9332 34.0893C94.7524 34.4322 94.5151 34.7164 94.2214 34.9423C93.9278 35.1678 93.6141 35.3484 93.2796 35.4837L96.092 39.8639H94.2554L91.8634 35.8968H90.2711V39.8639H88.6449V29.9663H91.4299ZM91.3214 31.3203H90.2711V34.5563H91.3959C92.1504 34.5563 92.6971 34.4165 93.0356 34.1367C93.3789 33.8568 93.5509 33.4438 93.5509 32.8976C93.5509 32.3244 93.368 31.9183 93.0021 31.679C92.6405 31.44 92.0803 31.3203 91.3214 31.3203Z" fill="#B4B4B4"/>
</svg>
