<svg width="38" height="40" viewBox="0 0 38 40" fill="none" xmlns="http://www.w3.org/2000/svg">
<path d="M37.3957 9.43014C37.3957 9.27818 37.3619 9.12621 37.2944 8.98269C37.1593 8.69565 36.8976 8.50148 36.6105 8.44238L19.4134 0.101309C19.1348 -0.0337695 18.8056 -0.0337695 18.527 0.101309L1.161 8.51836C0.823301 8.67877 0.603799 9.01646 0.586914 9.39637V9.40481C0.586914 9.41325 0.586914 9.4217 0.586914 9.43858V30.5614C0.586914 30.9498 0.806416 31.3043 1.161 31.4732L18.527 39.8903C18.5354 39.8903 18.5354 39.8903 18.5439 39.8987C18.5692 39.9071 18.5945 39.9156 18.6198 39.9325C18.6283 39.9325 18.6367 39.9409 18.6536 39.9409C18.6789 39.9493 18.7043 39.9578 18.7296 39.9662C18.738 39.9662 18.7465 39.9747 18.7549 39.9747C18.7802 39.9831 18.814 39.9831 18.8393 39.9916C18.8478 39.9916 18.8562 39.9916 18.8647 39.9916C18.8984 39.9916 18.9406 40 18.9744 40C19.0082 40 19.0504 40 19.0842 39.9916C19.0926 39.9916 19.1011 39.9916 19.1095 39.9916C19.1348 39.9916 19.1686 39.9831 19.1939 39.9747C19.2024 39.9747 19.2108 39.9662 19.2192 39.9662C19.2446 39.9578 19.2699 39.9493 19.2952 39.9409C19.3037 39.9409 19.3121 39.9325 19.329 39.9325C19.3543 39.924 19.3797 39.9156 19.405 39.8987C19.4134 39.8987 19.4134 39.8987 19.4219 39.8903L36.8385 31.4479C37.1846 31.279 37.4126 30.9244 37.4126 30.5361V9.45547C37.3957 9.44702 37.3957 9.43858 37.3957 9.43014ZM18.966 2.13592L34.0272 9.43858L28.4805 12.1317L13.4193 4.82904L18.966 2.13592ZM18.966 16.7412L3.90477 9.43858L11.0977 5.95188L26.1589 13.2545L18.966 16.7412ZM2.61309 11.068L17.9529 18.5057V37.3575L2.61309 29.9198V11.068ZM19.9791 37.3575V18.5057L27.1804 15.0106V19.9409C27.1804 20.4981 27.6363 20.954 28.1935 20.954C28.7507 20.954 29.2066 20.4981 29.2066 19.9409V14.0228L35.3695 11.0342V29.886L19.9791 37.3575Z" fill="url(#paint0_linear_9782_42576)"/>
<defs>
<linearGradient id="paint0_linear_9782_42576" x1="0.586914" y1="20" x2="38.3507" y2="20.2267" gradientUnits="userSpaceOnUse">
<stop stop-color="#294393"/>
<stop offset="1" stop-color="#04A4E6"/>
</linearGradient>
</defs>
</svg>
