<svg width="40" height="40" viewBox="0 0 40 40" fill="none" xmlns="http://www.w3.org/2000/svg">
<g clip-path="url(#clip0_9782_42541)">
<path d="M35.9803 34.6678L33.6785 8.72697C33.6371 8.21362 33.2065 7.82447 32.6849 7.82447H27.8329C27.8246 3.51066 24.314 0 20.0001 0C15.6863 0 12.1757 3.51066 12.1674 7.82447H7.3154C6.80205 7.82447 6.3715 8.21362 6.32182 8.72697L4.02002 34.6678C4.02002 34.7009 4.02002 34.7257 4.02002 34.7589C4.02002 37.6485 6.67785 40 9.94012 40H30.0602C33.3224 40 35.9803 37.6485 35.9803 34.7589C35.9803 34.7257 35.9803 34.7009 35.9803 34.6678ZM20.0001 1.98717C23.221 1.98717 25.8375 4.6036 25.8457 7.82447H14.1546C14.1628 4.6036 16.7793 1.98717 20.0001 1.98717ZM30.0602 38.0046H9.94012C7.78736 38.0046 6.03203 36.5721 6.00719 34.792L8.22619 9.81163H12.1674V13.2975C12.1674 13.8439 12.6145 14.291 13.161 14.291C13.7075 14.291 14.1546 13.8439 14.1546 13.2975V9.81163H25.8457V13.2975C25.8457 13.8439 26.2928 14.291 26.8393 14.291C27.3858 14.291 27.8329 13.8439 27.8329 13.2975V9.81163H31.7741L33.9931 34.8002C33.9683 36.5721 32.2129 38.0046 30.0602 38.0046Z" fill="url(#paint0_linear_9782_42541)"/>
<path d="M24.1317 20.6821L18.2696 26.5443L15.8767 24.1514C15.4875 23.7623 14.8583 23.7623 14.4691 24.1514C14.08 24.5406 14.08 25.1698 14.4691 25.559L17.5658 28.6557C17.7562 28.8461 18.0129 28.9455 18.2696 28.9455C18.5262 28.9455 18.7746 28.8461 18.9733 28.6557L25.5393 22.0897C25.9284 21.7006 25.9284 21.0713 25.5393 20.6821C25.1501 20.3013 24.5208 20.3013 24.1317 20.6821Z" fill="url(#paint1_linear_9782_42541)"/>
</g>
<defs>
<linearGradient id="paint0_linear_9782_42541" x1="4.02002" y1="20" x2="36.7948" y2="20.1708" gradientUnits="userSpaceOnUse">
<stop stop-color="#294393"/>
<stop offset="1" stop-color="#04A4E6"/>
</linearGradient>
<linearGradient id="paint1_linear_9782_42541" x1="14.1772" y1="24.671" x2="26.1275" y2="24.7772" gradientUnits="userSpaceOnUse">
<stop stop-color="#294393"/>
<stop offset="1" stop-color="#04A4E6"/>
</linearGradient>
<clipPath id="clip0_9782_42541">
<rect width="40" height="40" fill="white"/>
</clipPath>
</defs>
</svg>
