<svg width="20" height="20" viewBox="0 0 20 20" fill="none" xmlns="http://www.w3.org/2000/svg">
<path d="M12.4148 0.833496C13.2337 0.833452 14.0239 1.13484 14.6348 1.68016L14.7723 1.81016L18.189 5.22683C18.7694 5.80609 19.1159 6.57896 19.1623 7.39766L19.1673 7.58683V12.4152C19.1674 13.234 18.866 14.0243 18.3206 14.6352L18.1906 14.7727L14.774 18.1893C14.1951 18.7694 13.4229 19.1159 12.6048 19.1627L12.4156 19.1677H7.58648C6.76748 19.1676 5.9772 18.8659 5.36648 18.3202L5.22898 18.1902L1.81232 14.7735C1.23209 14.1945 0.885569 13.4219 0.838984 12.6035L0.833984 12.4143V7.586C0.83394 6.76712 1.13532 5.97688 1.68065 5.366L1.81065 5.2285L5.22732 1.81183C5.80657 1.23141 6.57945 0.884879 7.39815 0.838496L7.58732 0.833496H12.4148ZM10.009 12.5002L9.90315 12.506C9.70061 12.5301 9.51394 12.6276 9.37849 12.7801C9.24305 12.9326 9.16825 13.1295 9.16825 13.3335C9.16825 13.5375 9.24305 13.7344 9.37849 13.8869C9.51394 14.0394 9.70061 14.1369 9.90315 14.161L10.0007 14.1668L10.1065 14.161C10.309 14.1369 10.4957 14.0394 10.6311 13.8869C10.7666 13.7344 10.8414 13.5375 10.8414 13.3335C10.8414 13.1295 10.7666 12.9326 10.6311 12.7801C10.4957 12.6276 10.309 12.5301 10.1065 12.506L10.009 12.5002ZM10.0007 5.8335C9.79654 5.83352 9.59954 5.90846 9.44701 6.04409C9.29448 6.17972 9.19703 6.36662 9.17315 6.56933L9.16732 6.66683V10.0002L9.17315 10.0977C9.19724 10.3002 9.29478 10.4869 9.44729 10.6223C9.5998 10.7578 9.79668 10.8326 10.0007 10.8326C10.2046 10.8326 10.4015 10.7578 10.554 10.6223C10.7065 10.4869 10.8041 10.3002 10.8281 10.0977L10.834 10.0002V6.66683L10.8281 6.56933C10.8043 6.36662 10.7068 6.17972 10.5543 6.04409C10.4018 5.90846 10.2048 5.83352 10.0007 5.8335Z" fill="#FFC021"/>
</svg>
