<svg width="412" height="11" viewBox="0 0 412 11" fill="none" xmlns="http://www.w3.org/2000/svg">
<path d="M22.1457 3.26402C6.41409 6.29504 3.16594 6.76631 0.813915 7.84313C0.813912 8.27172 0.649821 8.33939 1.8805 8.76797C12.0124 6.86765 25.0993 4.18887 30.3502 4.86558C35.6012 5.5423 38.2266 11.3771 49.713 10.956C57.6714 10.6643 55.5382 8.79053 72.2754 5.24906C77.1161 8.88076 85.6488 9.21629 90.8997 7.77546C92.5439 7.32432 96.6322 6.42596 99.9247 5.45207C101.748 8.18185 109.36 9.10634 113.79 8.18149C117.817 7.34096 121.421 6.1739 127 5.24906C141.604 10.3244 138.486 7.2792 159.244 4.68513C172.945 12.0839 183.283 6.6476 199.282 4.79791C214.788 12.2869 223.895 7.4371 239.648 4.79791C248.099 10.6853 255.729 6.71527 270.907 4.21143C289.614 9.67027 293.06 5.72276 309.551 4.03097C322.924 10.956 328.913 4.18887 346.635 4.39188C353.609 7.97848 361.849 7.2943 376.089 4.48211C376.089 4.48211 378.987 5.72334 382.817 5.90322C388.56 6.17295 388.56 5.49719 398.652 4.18887C402.426 3.69958 404.914 3.29292 411.041 3.15124V1.57223C405.78 1.80296 401.277 1.7122 397.257 2.33918C387.203 3.90725 384.265 3.33832 382.325 2.49708C381.608 2.18639 381.809 1.87643 381.176 1.57223C376.91 -0.480444 365.916 3.17379 355.988 3.82794C350.163 -0.00677669 334.246 1.14365 319.888 3.94074C319.888 3.94074 315.95 1.59297 311.192 1.14366C303.069 0.376722 295.603 2.27151 286.004 3.94074C281.651 4.69759 274.845 1.23388 270.169 1.23388C263.113 1.23388 248.755 4.61745 248.755 4.61745C248.755 4.61745 248.531 2.64853 243.996 1.91059C234.889 0.428475 221.926 4.93326 214.788 5.74531C207.414 6.58423 210.276 3.21629 202.974 1.95571C195.672 0.695128 176.473 5.45207 171.632 5.5423C168.758 5.59587 167.12 2.27151 161.295 1.91059C151.551 1.30689 136.435 4.93326 136.435 4.93326C136.435 4.93326 133.071 2.70009 127 2.27151C119.774 1.7614 109.36 5.15883 109.36 5.15883C109.36 5.15883 110.427 2.27151 103.371 1.70758C99.1134 1.36733 82.2029 5.65509 82.2029 5.65509C82.2029 5.65509 79.0637 3.28024 73.5882 2.47452C66.9425 1.49662 53.1589 6.73783 47.3337 8.29427C43.8968 9.21257 37.8773 0.233013 22.1457 3.26402Z" fill="url(#paint0_linear_10350_4654)"/>
<defs>
<linearGradient id="paint0_linear_10350_4654" x1="0.806644" y1="5.96543" x2="393.539" y2="110.769" gradientUnits="userSpaceOnUse">
<stop stop-color="#294393"/>
<stop offset="1" stop-color="#04A4E6"/>
</linearGradient>
</defs>
</svg>
