<svg width="46" height="33" viewBox="0 0 46 33" fill="none" xmlns="http://www.w3.org/2000/svg">
<rect x="1.32959" y="1.11328" width="44" height="30.7647" rx="4.79412" fill="#1A1A1A" stroke="#333333"/>
<path d="M19.3589 31.29L44.506 23.6797V27.3194C44.506 29.5123 42.7283 31.29 40.5354 31.29H19.3589Z" fill="#FD6020"/>
<path fill-rule="evenodd" clip-rule="evenodd" d="M39.7329 12.6721C41.1164 12.6721 41.8773 13.3121 41.8773 14.5209C41.9465 15.4453 41.3239 16.2276 40.4938 16.3698L42.3615 19.0008H40.9089L39.3179 16.4409H39.1795V19.0008H38.0036V12.6721H39.7329ZM39.1798 15.5878H39.5256C40.2866 15.5878 40.6324 15.2322 40.6324 14.5923C40.6324 14.0234 40.2866 13.6678 39.5256 13.6678H39.1798V15.5878ZM33.9225 19.0008H37.2428V17.9342H35.0984V16.2276H37.1736V15.1609H35.0984V13.7387H37.2428V12.6721H33.9225V19.0008ZM30.4641 16.9386L28.8731 12.6721H27.6279L30.1874 19.143H30.8099L33.3694 12.6721H32.1243L30.4641 16.9386ZM16.4212 15.8717C16.4212 17.6494 17.8047 19.1427 19.5341 19.1427C20.0875 19.1427 20.5717 19.0005 21.0559 18.7872V17.365C20.71 17.7916 20.2258 18.0761 19.6724 18.0761C18.5656 18.0761 17.6664 17.2228 17.6664 16.085V15.9428C17.5972 14.8051 18.4965 13.8095 19.6032 13.7384C20.1566 13.7384 20.71 14.0229 21.0559 14.4495V13.0273C20.6408 12.7429 20.0875 12.6718 19.6032 12.6718C17.8047 12.5296 16.4212 14.0229 16.4212 15.8717ZM14.2772 15.0898C13.5854 14.8054 13.3779 14.6632 13.3779 14.3076C13.4471 13.881 13.7929 13.5254 14.208 13.5965C14.5539 13.5965 14.8997 13.8098 15.1764 14.0943L15.799 13.241C15.3148 12.8143 14.6922 12.5299 14.0696 12.5299C13.1012 12.4588 12.2711 13.241 12.2019 14.2365V14.3076C12.2019 15.1609 12.5478 15.6587 13.6546 16.0142C13.9313 16.0853 14.208 16.2276 14.4847 16.3698C14.6922 16.512 14.8306 16.7253 14.8306 17.0098C14.8306 17.5075 14.4155 17.9342 14.0005 17.9342H13.9313C13.3779 17.9342 12.8937 17.5786 12.6862 17.0809L11.9252 17.8631C12.3403 18.6453 13.1704 19.0719 14.0005 19.0719C15.1072 19.143 16.0065 18.2897 16.0757 17.152V16.9387C16.0065 16.0853 15.6606 15.6587 14.2772 15.0898ZM10.265 19.0008H11.441V12.6721H10.265V19.0008ZM4.80029 12.6721H6.52964H6.87551C8.53568 12.7432 9.84999 14.1654 9.78081 15.872C9.78081 16.7964 9.36577 17.6497 8.67403 18.2897C8.05147 18.7875 7.29055 19.0719 6.52964 19.0008H4.80029V12.6721ZM6.32223 17.9338C6.87562 18.0049 7.49819 17.7916 7.91323 17.436C8.32827 17.0094 8.5358 16.4405 8.5358 15.8005C8.5358 15.2316 8.32827 14.6628 7.91323 14.2361C7.49819 13.8806 6.87562 13.6672 6.32223 13.7383H5.97636V17.9338H6.32223Z" fill="white"/>
<path fill-rule="evenodd" clip-rule="evenodd" d="M24.5839 12.5254C22.8545 12.5254 21.4019 13.9476 21.4019 15.7964C21.4019 17.5741 22.7853 19.0674 24.5839 19.1385C26.3824 19.2097 27.7659 17.7164 27.835 15.8675C27.7659 14.0187 26.3824 12.5254 24.5839 12.5254V12.5254Z" fill="#FD6020"/>
</svg>
