<svg width="46" height="33" viewBox="0 0 46 33" fill="none" xmlns="http://www.w3.org/2000/svg">
<rect x="1.32959" y="1.11328" width="44" height="30.7647" rx="4.79412" fill="#1A1A1A" stroke="#333333"/>
<path fill-rule="evenodd" clip-rule="evenodd" d="M13.336 11.6556C12.9583 12.1214 12.354 12.4887 11.7496 12.4363C11.6741 11.8065 11.97 11.1374 12.3162 10.7241C12.6939 10.2453 13.3549 9.90417 13.89 9.87793C13.953 10.5339 13.7074 11.1768 13.336 11.6556ZM13.8836 12.5607C13.3511 12.5288 12.8653 12.7276 12.4729 12.8881C12.2204 12.9914 12.0066 13.0789 11.8439 13.0789C11.6613 13.0789 11.4387 12.9868 11.1887 12.8833C10.8611 12.7477 10.4866 12.5926 10.0938 12.6001C9.19364 12.6132 8.35638 13.1445 7.89683 13.9907C6.95255 15.6832 7.65131 18.189 8.56412 19.5666C9.01108 20.2488 9.54617 20.9966 10.2512 20.9704C10.5614 20.9582 10.7845 20.8595 11.0155 20.7574C11.2813 20.6399 11.5575 20.5178 11.9887 20.5178C12.405 20.5178 12.6691 20.6367 12.9226 20.7509C13.1636 20.8594 13.3951 20.9637 13.7388 20.9573C14.469 20.9441 14.9286 20.275 15.3755 19.5928C15.8579 18.8606 16.0698 18.146 16.102 18.0376L16.1058 18.025C16.105 18.0242 16.099 18.0214 16.0885 18.0164C15.9273 17.9394 14.6949 17.3515 14.683 15.775C14.6712 14.4518 15.6606 13.7813 15.8163 13.6758C15.8258 13.6693 15.8322 13.665 15.8351 13.6628C15.2055 12.6919 14.2235 12.5869 13.8836 12.5607ZM18.939 20.8853V10.6586H22.6217C24.5228 10.6586 25.8511 12.023 25.8511 14.0172C25.8511 16.0114 24.4976 17.389 22.5713 17.389H20.4624V20.8853H18.939ZM20.4622 11.997H22.2185C23.5405 11.997 24.296 12.7317 24.296 14.024C24.296 15.3163 23.5405 16.0575 22.2122 16.0575H20.4622V11.997ZM30.8809 19.6586C30.478 20.4589 29.5903 20.964 28.6335 20.964C27.2171 20.964 26.2287 20.0849 26.2287 18.7599C26.2287 17.4479 27.1856 16.6935 28.9545 16.582L30.8557 16.4639V15.8998C30.8557 15.0667 30.3332 14.6141 29.4015 14.6141C28.6335 14.6141 28.0732 15.0273 27.9599 15.6571H26.5875C26.6316 14.332 27.8277 13.3677 29.4456 13.3677C31.1893 13.3677 32.3225 14.3189 32.3225 15.7948V20.8852H30.9123V19.6586H30.8809ZM29.0421 19.7507C28.23 19.7507 27.7138 19.344 27.7138 18.7208C27.7138 18.0779 28.2111 17.704 29.1617 17.645L30.8551 17.5335V18.1107C30.8551 19.0685 30.0745 19.7507 29.0421 19.7507ZM36.9998 21.2852C36.3892 23.0761 35.6904 23.6664 34.2047 23.6664C34.0914 23.6664 33.7137 23.6533 33.6256 23.6271V22.4004C33.72 22.4135 33.9529 22.4266 34.0725 22.4266C34.7461 22.4266 35.1238 22.1314 35.3568 21.3639L35.4953 20.9113L32.9142 13.4659H34.5069L36.301 19.5075H36.3325L38.1266 13.4659H39.6753L36.9998 21.2852Z" fill="white"/>
</svg>
