<svg width="66" height="33" viewBox="0 0 66 33" fill="none" xmlns="http://www.w3.org/2000/svg">
<rect x="1.32959" y="0.996094" width="64" height="31" rx="4.79412" fill="#1A1A1A" stroke="#333333"/>
<g clip-path="url(#clip0_10205_50218)">
<rect width="11" height="11" transform="translate(5.82959 4.49609)" fill="#1A1A1A"/>
<path d="M14.5379 9.53809H8.12126C7.615 9.53809 7.20459 9.94849 7.20459 10.4548V13.6631C7.20459 14.1693 7.615 14.5798 8.12126 14.5798H14.5379C15.0442 14.5798 15.4546 14.1693 15.4546 13.6631V10.4548C15.4546 9.94849 15.0442 9.53809 14.5379 9.53809Z" stroke="white" stroke-width="0.916667" stroke-linecap="round" stroke-linejoin="round"/>
<path d="M9.03809 9.53809V7.70475C9.03809 7.09696 9.27953 6.51407 9.7093 6.0843C10.1391 5.65453 10.722 5.41309 11.3298 5.41309C11.9375 5.41309 12.5204 5.65453 12.9502 6.0843C13.38 6.51407 13.6214 7.09696 13.6214 7.70475V9.53809" stroke="white" stroke-width="0.916667" stroke-linecap="round" stroke-linejoin="round"/>
</g>
<path d="M22.1076 13.5731C21.6016 13.5731 21.1469 13.4851 20.7436 13.3091C20.3476 13.1258 20.0359 12.8764 19.8086 12.5611C19.5813 12.2384 19.4639 11.8681 19.4566 11.4501H20.5236C20.5603 11.8094 20.7069 12.1138 20.9636 12.3631C21.2276 12.6051 21.6089 12.7261 22.1076 12.7261C22.5843 12.7261 22.9583 12.6088 23.2296 12.3741C23.5083 12.1321 23.6476 11.8241 23.6476 11.4501C23.6476 11.1568 23.5669 10.9184 23.4056 10.7351C23.2443 10.5518 23.0426 10.4124 22.8006 10.3171C22.5586 10.2218 22.2323 10.1191 21.8216 10.0091C21.3156 9.87709 20.9086 9.74509 20.6006 9.61309C20.2999 9.48109 20.0396 9.27576 19.8196 8.99709C19.6069 8.71109 19.5006 8.32976 19.5006 7.85309C19.5006 7.43509 19.6069 7.06476 19.8196 6.74209C20.0323 6.41943 20.3293 6.17009 20.7106 5.99409C21.0993 5.81809 21.5429 5.73009 22.0416 5.73009C22.7603 5.73009 23.3469 5.90976 23.8016 6.26909C24.2636 6.62843 24.5239 7.10509 24.5826 7.69909H23.4826C23.4459 7.40576 23.2919 7.14909 23.0206 6.92909C22.7493 6.70176 22.3899 6.58809 21.9426 6.58809C21.5246 6.58809 21.1836 6.69809 20.9196 6.91809C20.6556 7.13076 20.5236 7.43143 20.5236 7.82009C20.5236 8.09876 20.6006 8.32609 20.7546 8.50209C20.9159 8.67809 21.1103 8.81376 21.3376 8.90909C21.5723 8.99709 21.8986 9.09976 22.3166 9.21709C22.8226 9.35643 23.2296 9.49576 23.5376 9.63509C23.8456 9.76709 24.1096 9.97609 24.3296 10.2621C24.5496 10.5408 24.6596 10.9221 24.6596 11.4061C24.6596 11.7801 24.5606 12.1321 24.3626 12.4621C24.1646 12.7921 23.8713 13.0598 23.4826 13.2651C23.0939 13.4704 22.6356 13.5731 22.1076 13.5731ZM31.6326 10.2511C31.6326 10.4418 31.6216 10.6434 31.5996 10.8561H26.7816C26.8183 11.4501 27.02 11.9158 27.3866 12.2531C27.7606 12.5831 28.2116 12.7481 28.7396 12.7481C29.1723 12.7481 29.5316 12.6491 29.8176 12.4511C30.111 12.2458 30.3163 11.9744 30.4336 11.6371H31.5116C31.3503 12.2164 31.0276 12.6894 30.5436 13.0561C30.0596 13.4154 29.4583 13.5951 28.7396 13.5951C28.1676 13.5951 27.6543 13.4668 27.1996 13.2101C26.7523 12.9534 26.4003 12.5904 26.1436 12.1211C25.887 11.6444 25.7586 11.0944 25.7586 10.4711C25.7586 9.84776 25.8833 9.30143 26.1326 8.83209C26.382 8.36276 26.7303 8.00343 27.1776 7.75409C27.6323 7.49743 28.153 7.36909 28.7396 7.36909C29.3116 7.36909 29.8176 7.49376 30.2576 7.74309C30.6976 7.99243 31.035 8.33709 31.2696 8.77709C31.5116 9.20976 31.6326 9.70109 31.6326 10.2511ZM30.5986 10.0421C30.5986 9.66076 30.5143 9.33443 30.3456 9.06309C30.177 8.78443 29.946 8.57543 29.6526 8.43609C29.3666 8.28943 29.0476 8.21609 28.6956 8.21609C28.1896 8.21609 27.757 8.37743 27.3976 8.70009C27.0456 9.02276 26.844 9.47009 26.7926 10.0421H30.5986ZM32.5799 10.4711C32.5799 9.84776 32.7046 9.30509 32.9539 8.84309C33.2033 8.37376 33.5479 8.01076 33.9879 7.75409C34.4353 7.49743 34.9449 7.36909 35.5169 7.36909C36.2576 7.36909 36.8663 7.54876 37.3429 7.90809C37.8269 8.26743 38.1459 8.76609 38.2999 9.40409H37.2219C37.1193 9.03743 36.9176 8.74776 36.6169 8.53509C36.3236 8.32243 35.9569 8.21609 35.5169 8.21609C34.9449 8.21609 34.4829 8.41409 34.1309 8.81009C33.7789 9.19876 33.6029 9.75243 33.6029 10.4711C33.6029 11.1971 33.7789 11.7581 34.1309 12.1541C34.4829 12.5501 34.9449 12.7481 35.5169 12.7481C35.9569 12.7481 36.3236 12.6454 36.6169 12.4401C36.9103 12.2348 37.1119 11.9414 37.2219 11.5601H38.2999C38.1386 12.1761 37.8159 12.6711 37.3319 13.0451C36.8479 13.4118 36.2429 13.5951 35.5169 13.5951C34.9449 13.5951 34.4353 13.4668 33.9879 13.2101C33.5479 12.9534 33.2033 12.5904 32.9539 12.1211C32.7046 11.6518 32.5799 11.1018 32.5799 10.4711ZM44.9816 7.46809V13.4961H43.9806V12.6051C43.7899 12.9131 43.5222 13.1551 43.1776 13.3311C42.8402 13.4998 42.4662 13.5841 42.0556 13.5841C41.5862 13.5841 41.1646 13.4888 40.7906 13.2981C40.4166 13.1001 40.1196 12.8068 39.8996 12.4181C39.6869 12.0294 39.5806 11.5564 39.5806 10.9991V7.46809H40.5706V10.8671C40.5706 11.4611 40.7209 11.9194 41.0216 12.2421C41.3222 12.5574 41.7329 12.7151 42.2536 12.7151C42.7889 12.7151 43.2106 12.5501 43.5186 12.2201C43.8266 11.8901 43.9806 11.4098 43.9806 10.7791V7.46809H44.9816ZM47.6727 8.44709C47.8487 8.10243 48.098 7.83476 48.4207 7.64409C48.7507 7.45343 49.1504 7.35809 49.6197 7.35809V8.39209H49.3557C48.2337 8.39209 47.6727 9.00076 47.6727 10.2181V13.4961H46.6717V7.46809H47.6727V8.44709ZM56.2752 10.2511C56.2752 10.4418 56.2642 10.6434 56.2422 10.8561H51.4242C51.4609 11.4501 51.6626 11.9158 52.0292 12.2531C52.4032 12.5831 52.8542 12.7481 53.3822 12.7481C53.8149 12.7481 54.1742 12.6491 54.4602 12.4511C54.7536 12.2458 54.9589 11.9744 55.0762 11.6371H56.1542C55.9929 12.2164 55.6702 12.6894 55.1862 13.0561C54.7022 13.4154 54.1009 13.5951 53.3822 13.5951C52.8102 13.5951 52.2969 13.4668 51.8422 13.2101C51.3949 12.9534 51.0429 12.5904 50.7862 12.1211C50.5296 11.6444 50.4012 11.0944 50.4012 10.4711C50.4012 9.84776 50.5259 9.30143 50.7752 8.83209C51.0246 8.36276 51.3729 8.00343 51.8202 7.75409C52.2749 7.49743 52.7956 7.36909 53.3822 7.36909C53.9542 7.36909 54.4602 7.49376 54.9002 7.74309C55.3402 7.99243 55.6776 8.33709 55.9122 8.77709C56.1542 9.20976 56.2752 9.70109 56.2752 10.2511ZM55.2412 10.0421C55.2412 9.66076 55.1569 9.33443 54.9882 9.06309C54.8196 8.78443 54.5886 8.57543 54.2952 8.43609C54.0092 8.28943 53.6902 8.21609 53.3382 8.21609C52.8322 8.21609 52.3996 8.37743 52.0402 8.70009C51.6882 9.02276 51.4866 9.47009 51.4352 10.0421H55.2412Z" fill="white"/>
<path d="M12.6328 20.7121C12.6328 21.1601 12.5248 21.5801 12.3088 21.9721C12.1008 22.3641 11.7688 22.6801 11.3128 22.9201C10.8648 23.1601 10.2968 23.2801 9.60878 23.2801H8.20478V26.4961H6.52478V18.1201H9.60878C10.2568 18.1201 10.8088 18.2321 11.2648 18.4561C11.7208 18.6801 12.0608 18.9881 12.2848 19.3801C12.5168 19.7721 12.6328 20.2161 12.6328 20.7121ZM9.53678 21.9241C10.0008 21.9241 10.3448 21.8201 10.5688 21.6121C10.7928 21.3961 10.9048 21.0961 10.9048 20.7121C10.9048 19.8961 10.4488 19.4881 9.53678 19.4881H8.20478V21.9241H9.53678ZM13.3936 23.1481C13.3936 22.4761 13.5256 21.8801 13.7896 21.3601C14.0616 20.8401 14.4256 20.4401 14.8816 20.1601C15.3456 19.8801 15.8616 19.7401 16.4296 19.7401C16.9256 19.7401 17.3576 19.8401 17.7256 20.0401C18.1016 20.2401 18.4016 20.4921 18.6256 20.7961V19.8481H20.3176V26.4961H18.6256V25.5241C18.4096 25.8361 18.1096 26.0961 17.7256 26.3041C17.3496 26.5041 16.9136 26.6041 16.4176 26.6041C15.8576 26.6041 15.3456 26.4601 14.8816 26.1721C14.4256 25.8841 14.0616 25.4801 13.7896 24.9601C13.5256 24.4321 13.3936 23.8281 13.3936 23.1481ZM18.6256 23.1721C18.6256 22.7641 18.5456 22.4161 18.3856 22.1281C18.2256 21.8321 18.0096 21.6081 17.7376 21.4561C17.4656 21.2961 17.1736 21.2161 16.8616 21.2161C16.5496 21.2161 16.2616 21.2921 15.9976 21.4441C15.7336 21.5961 15.5176 21.8201 15.3496 22.1161C15.1896 22.4041 15.1096 22.7481 15.1096 23.1481C15.1096 23.5481 15.1896 23.9001 15.3496 24.2041C15.5176 24.5001 15.7336 24.7281 15.9976 24.8881C16.2696 25.0481 16.5576 25.1281 16.8616 25.1281C17.1736 25.1281 17.4656 25.0521 17.7376 24.9001C18.0096 24.7401 18.2256 24.5161 18.3856 24.2281C18.5456 23.9321 18.6256 23.5801 18.6256 23.1721ZM28.3184 19.8481L24.2024 29.6401H22.4144L23.8544 26.3281L21.1904 19.8481H23.0744L24.7904 24.4921L26.5304 19.8481H28.3184ZM37.48 19.7521C38.296 19.7521 38.952 20.0041 39.448 20.5081C39.952 21.0041 40.204 21.7001 40.204 22.5961V26.4961H38.524V22.8241C38.524 22.3041 38.392 21.9081 38.128 21.6361C37.864 21.3561 37.504 21.2161 37.048 21.2161C36.592 21.2161 36.228 21.3561 35.956 21.6361C35.692 21.9081 35.56 22.3041 35.56 22.8241V26.4961H33.88V22.8241C33.88 22.3041 33.748 21.9081 33.484 21.6361C33.22 21.3561 32.86 21.2161 32.404 21.2161C31.94 21.2161 31.572 21.3561 31.3 21.6361C31.036 21.9081 30.904 22.3041 30.904 22.8241V26.4961H29.224V19.8481H30.904V20.6521C31.12 20.3721 31.396 20.1521 31.732 19.9921C32.076 19.8321 32.452 19.7521 32.86 19.7521C33.38 19.7521 33.844 19.8641 34.252 20.0881C34.66 20.3041 34.976 20.6161 35.2 21.0241C35.416 20.6401 35.728 20.3321 36.136 20.1001C36.552 19.8681 37 19.7521 37.48 19.7521ZM47.9782 23.0281C47.9782 23.2681 47.9622 23.4841 47.9302 23.6761H43.0702C43.1102 24.1561 43.2782 24.5321 43.5742 24.8041C43.8702 25.0761 44.2342 25.2121 44.6662 25.2121C45.2902 25.2121 45.7342 24.9441 45.9982 24.4081H47.8102C47.6182 25.0481 47.2502 25.5761 46.7062 25.9921C46.1622 26.4001 45.4942 26.6041 44.7022 26.6041C44.0622 26.6041 43.4862 26.4641 42.9742 26.1841C42.4702 25.8961 42.0742 25.4921 41.7862 24.9721C41.5062 24.4521 41.3662 23.8521 41.3662 23.1721C41.3662 22.4841 41.5062 21.8801 41.7862 21.3601C42.0662 20.8401 42.4582 20.4401 42.9622 20.1601C43.4662 19.8801 44.0462 19.7401 44.7022 19.7401C45.3342 19.7401 45.8982 19.8761 46.3942 20.1481C46.8982 20.4201 47.2862 20.8081 47.5582 21.3121C47.8382 21.8081 47.9782 22.3801 47.9782 23.0281ZM46.2382 22.5481C46.2302 22.1161 46.0742 21.7721 45.7702 21.5161C45.4662 21.2521 45.0942 21.1201 44.6542 21.1201C44.2382 21.1201 43.8862 21.2481 43.5982 21.5041C43.3182 21.7521 43.1462 22.1001 43.0822 22.5481H46.2382ZM52.8885 19.7521C53.6805 19.7521 54.3205 20.0041 54.8085 20.5081C55.2965 21.0041 55.5405 21.7001 55.5405 22.5961V26.4961H53.8605V22.8241C53.8605 22.2961 53.7285 21.8921 53.4645 21.6121C53.2005 21.3241 52.8405 21.1801 52.3845 21.1801C51.9205 21.1801 51.5525 21.3241 51.2805 21.6121C51.0165 21.8921 50.8845 22.2961 50.8845 22.8241V26.4961H49.2045V19.8481H50.8845V20.6761C51.1085 20.3881 51.3925 20.1641 51.7365 20.0041C52.0885 19.8361 52.4725 19.7521 52.8885 19.7521ZM59.0941 21.2281V24.4441C59.0941 24.6681 59.1461 24.8321 59.2501 24.9361C59.3621 25.0321 59.5461 25.0801 59.8021 25.0801H60.5821V26.4961H59.5261C58.1101 26.4961 57.4021 25.8081 57.4021 24.4321V21.2281H56.6101V19.8481H57.4021V18.2041H59.0941V19.8481H60.5821V21.2281H59.0941Z" fill="white"/>
<defs>
<clipPath id="clip0_10205_50218">
<rect width="11" height="11" fill="white" transform="translate(5.82959 4.49609)"/>
</clipPath>
</defs>
</svg>
