<svg width="14" height="15" viewBox="0 0 14 15" fill="none" xmlns="http://www.w3.org/2000/svg">
<path d="M7.24118 10.9305L9.99961 12.6779C10.3522 12.901 10.7897 12.5689 10.6852 12.1572L9.88849 9.02255C9.86598 8.93523 9.86858 8.84334 9.89598 8.75743C9.92337 8.67152 9.97446 8.59509 10.0434 8.53692L12.517 6.47849C12.8416 6.20811 12.6745 5.66867 12.2567 5.64155L9.02661 5.43155C8.93965 5.42538 8.85622 5.39464 8.78605 5.3429C8.71588 5.29116 8.66184 5.22055 8.63024 5.1393L7.42536 2.10567C7.39256 2.01946 7.33432 1.94526 7.25837 1.8929C7.18243 1.84054 7.09236 1.8125 7.00011 1.8125C6.90787 1.8125 6.8178 1.84054 6.74186 1.8929C6.66591 1.94526 6.60767 2.01946 6.57486 2.10567L5.36999 5.1393C5.33845 5.22063 5.28444 5.29133 5.21427 5.34315C5.14409 5.39497 5.06063 5.42578 4.97361 5.43199L1.74355 5.64199C1.32618 5.66867 1.15818 6.20811 1.48324 6.47849L3.95686 8.53736C4.02569 8.59549 4.07672 8.67185 4.10412 8.75767C4.13151 8.84349 4.13415 8.9353 4.11174 9.02255L3.37324 11.9297C3.24768 12.4237 3.77311 12.8222 4.19574 12.554L6.75949 10.9305C6.83155 10.8847 6.91516 10.8603 7.00055 10.8603C7.08594 10.8603 7.16956 10.8847 7.24161 10.9305H7.24118Z" fill="#E6E6E6"/>
</svg>
