<svg width="25" height="24" viewBox="0 0 25 24" fill="none" xmlns="http://www.w3.org/2000/svg">
<g clip-path="url(#clip0_9773_15530)">
<path d="M3.0498 10C3.0498 10.9193 3.23087 11.8295 3.58265 12.6788C3.93443 13.5281 4.45005 14.2997 5.10006 14.9497C5.75007 15.5998 6.52174 16.1154 7.37102 16.4672C8.2203 16.8189 9.13055 17 10.0498 17C10.9691 17 11.8793 16.8189 12.7286 16.4672C13.5779 16.1154 14.3495 15.5998 14.9996 14.9497C15.6496 14.2997 16.1652 13.5281 16.517 12.6788C16.8687 11.8295 17.0498 10.9193 17.0498 10C17.0498 9.08075 16.8687 8.1705 16.517 7.32122C16.1652 6.47194 15.6496 5.70026 14.9996 5.05025C14.3495 4.40024 13.5779 3.88463 12.7286 3.53284C11.8793 3.18106 10.9691 3 10.0498 3C9.13055 3 8.2203 3.18106 7.37102 3.53284C6.52174 3.88463 5.75007 4.40024 5.10006 5.05025C4.45005 5.70026 3.93443 6.47194 3.58265 7.32122C3.23087 8.1705 3.0498 9.08075 3.0498 10Z" stroke="#4C4C4C" stroke-linecap="round" stroke-linejoin="round"/>
<path d="M21.0498 21L15.0498 15" stroke="#4C4C4C" stroke-linecap="round" stroke-linejoin="round"/>
</g>
<defs>
<clipPath id="clip0_9773_15530">
<rect width="24" height="24" fill="white" transform="translate(0.0498047)"/>
</clipPath>
</defs>
</svg>
