<svg width="534" height="147" viewBox="0 0 534 147" fill="none" xmlns="http://www.w3.org/2000/svg">
<path d="M63.8 0.399902L0.699951 37.3999V110.2L63.4 147L126.6 110.4V92.4999L72.7 122.5C68.5 124.3 63.8 121.2 63.8 116.6V79.1999C63.8 76.6999 65.2 74.4999 67.5 73.3999L126.6 41.5999V37.3999L63.8 0.399902ZM46 62.7999V114.4L18.5 99.0999V47.4999L60.5999 22.1999L89.6 37.4999L46 62.7999ZM80.2 103.3L117.2 82.9999V62.9999L78.2 84.9999C77.5 85.3999 77.0999 86.0999 77.0999 86.7999V101.4C77.0999 103.1 78.7999 104.1 80.2 103.3Z" fill="url(#paint0_linear_11398_19100)"/>
<path d="M354.2 20.3999H337.3V96.0999H354.2V20.3999Z" fill="url(#paint1_linear_11398_19100)"/>
<path d="M363.1 34.8999H394.8V96.0999H411.8V34.8999H443.5V20.3999H363.1V34.8999Z" fill="url(#paint2_linear_11398_19100)"/>
<path d="M269.9 20.3999H252.6V96.0999H328.4V81.5999H269.9V20.3999Z" fill="url(#paint3_linear_11398_19100)"/>
<path d="M163.6 116.4C163.6 116 163.7 115.6 163.8 115.3C163.9 114.9 164.2 114.6 164.4 114.4C164.7 114.1 165 113.9 165.3 113.8C165.7 113.6 166 113.6 166.4 113.6H177.4C177.8 113.6 178.2 113.7 178.5 113.8C178.9 114 179.2 114.2 179.4 114.4C179.7 114.7 179.9 115 180 115.3C180.2 115.7 180.2 116 180.2 116.4V119H177.3V116.4H166.3V130.8H177.3V128.2H180.2V130.8C180.2 131.2 180.1 131.6 180 131.9C179.9 132.3 179.6 132.6 179.4 132.8C179.1 133.1 178.8 133.3 178.5 133.4C178.1 133.6 177.8 133.6 177.4 133.6H166.4C166 133.6 165.6 133.5 165.3 133.4C164.9 133.3 164.6 133 164.4 132.8C164.1 132.5 163.9 132.2 163.8 131.9C163.6 131.5 163.6 131.2 163.6 130.8V116.4Z" fill="#000051"/>
<path d="M230.3 130.8C230.3 131.2 230.2 131.6 230.1 131.9C229.9 132.3 229.7 132.6 229.5 132.8C229.2 133.1 228.9 133.3 228.6 133.4C228.2 133.6 227.9 133.6 227.5 133.6H215.9C215.5 133.6 215.1 133.5 214.8 133.4C214.4 133.3 214.1 133 213.9 132.8C213.6 132.5 213.4 132.2 213.3 131.9C213.1 131.5 213.1 131.2 213.1 130.8V116.4C213.1 116 213.2 115.6 213.3 115.3C213.4 114.9 213.7 114.6 213.9 114.4C214.2 114.1 214.5 113.9 214.8 113.8C215.2 113.6 215.5 113.6 215.9 113.6H227.5C227.9 113.6 228.3 113.7 228.6 113.8C229 114 229.3 114.2 229.5 114.4C229.8 114.7 230 115 230.1 115.3C230.2 115.7 230.3 116 230.3 116.4V130.8ZM215.9 116.4V130.8H227.5V116.4H215.9Z" fill="#000051"/>
<path d="M273.9 133.7L266.4 118.9V133.7H263.5V113.5H266.7L274.4 128.7L282.1 113.5H285.2V133.7H282.3V118.9L274.8 133.7H273.9Z" fill="#000051"/>
<path d="M328.8 133.7L321.3 118.9V133.7H318.4V113.5H321.6L329.3 128.7L337 113.5H340.1V133.7H337.2V118.9L329.6 133.7H328.8Z" fill="#000051"/>
<path d="M373.3 113.5H388V116.4H376.1V122.2H386.2V125.1H376.1V130.9H388V133.8H373.3V113.5Z" fill="#000051"/>
<path d="M436.3 120.7C436.3 123.5 435.1 125.1 432.7 125.5L436.5 133.7H433.3L429.5 125.6H423.2V133.7H420.3V113.5H431.4C434.7 113.5 436.3 115.1 436.3 118.4V120.7ZM423.2 122.8H431.2C432 122.8 432.5 122.6 432.9 122.3C433.2 122 433.4 121.4 433.4 120.6V118.6C433.4 117.8 433.2 117.3 432.9 116.9C432.6 116.6 432 116.4 431.2 116.4H423.2V122.8Z" fill="#000051"/>
<path d="M469.1 116.4C469.1 116 469.2 115.6 469.3 115.3C469.5 114.9 469.7 114.6 469.9 114.4C470.2 114.1 470.5 113.9 470.8 113.8C471.2 113.6 471.5 113.6 471.9 113.6H482.9C483.3 113.6 483.7 113.7 484 113.8C484.4 114 484.7 114.2 484.9 114.4C485.2 114.7 485.4 115 485.5 115.3C485.6 115.7 485.7 116 485.7 116.4V119H483V116.4H472V130.8H483V128.2H485.9V130.8C485.9 131.2 485.8 131.6 485.7 131.9C485.6 132.3 485.3 132.6 485.1 132.8C484.8 133.1 484.5 133.3 484.2 133.4C483.8 133.6 483.5 133.6 483.1 133.6H472.1C471.7 133.6 471.3 133.5 471 133.4C470.6 133.3 470.3 133 470.1 132.8C469.8 132.5 469.6 132.2 469.5 131.9C469.4 131.5 469.3 131.2 469.3 130.8V116.4H469.1Z" fill="#000051"/>
<path d="M518.5 113.5H533.2V116.4H521.3V122.2H531.4V125.1H521.3V130.9H533.2V133.8H518.5V113.5Z" fill="#000051"/>
<path d="M177.8 70.2V64.9H242.3V51.5H177.8V46.4C177.8 37.6 180.1 34.8 189.9 34.8H208.5L214 20.5H189.8C167.5 20.5 161 27.4 161 46.5V70.2C161 89.3 167.5 96.2 189.8 96.2H242.6V81.9H189.8C180 81.7 177.8 79.3 177.8 70.2Z" fill="url(#paint4_linear_11398_19100)"/>
<path d="M242.7 35.1999H218.5L224.1 20.3999H242.7V35.1999Z" fill="#000051"/>
<path d="M468.5 70.2V64.9H533V51.5H468.5V46.4C468.5 37.6 470.8 34.8 480.6 34.8H499.2L504.7 20.5H480.5C458.2 20.5 451.7 27.4 451.7 46.5V70.2C451.7 89.3 458.2 96.2 480.5 96.2H533.3V81.9H480.5C470.7 81.7 468.5 79.3 468.5 70.2Z" fill="url(#paint5_linear_11398_19100)"/>
<path d="M533.4 35.1999H509.2L514.8 20.3999H533.4V35.1999Z" fill="#000051"/>
<defs>
<linearGradient id="paint0_linear_11398_19100" x1="29.7623" y1="42.3708" x2="135.488" y2="140.704" gradientUnits="userSpaceOnUse">
<stop stop-color="#04A4E6"/>
<stop offset="1" stop-color="#000051"/>
</linearGradient>
<linearGradient id="paint1_linear_11398_19100" x1="337.3" y1="58.2499" x2="354.631" y2="58.2751" gradientUnits="userSpaceOnUse">
<stop stop-color="#294393"/>
<stop offset="1" stop-color="#04A4E6"/>
</linearGradient>
<linearGradient id="paint2_linear_11398_19100" x1="363.1" y1="58.2499" x2="445.547" y2="58.8209" gradientUnits="userSpaceOnUse">
<stop stop-color="#294393"/>
<stop offset="1" stop-color="#04A4E6"/>
</linearGradient>
<linearGradient id="paint3_linear_11398_19100" x1="252.6" y1="58.2499" x2="330.33" y2="58.7574" gradientUnits="userSpaceOnUse">
<stop stop-color="#294393"/>
<stop offset="1" stop-color="#04A4E6"/>
</linearGradient>
<linearGradient id="paint4_linear_11398_19100" x1="161" y1="58.35" x2="244.678" y2="58.9382" gradientUnits="userSpaceOnUse">
<stop stop-color="#294393"/>
<stop offset="1" stop-color="#04A4E6"/>
</linearGradient>
<linearGradient id="paint5_linear_11398_19100" x1="451.7" y1="58.35" x2="535.378" y2="58.9382" gradientUnits="userSpaceOnUse">
<stop stop-color="#294393"/>
<stop offset="1" stop-color="#04A4E6"/>
</linearGradient>
</defs>
</svg>
