<svg width="46" height="33" viewBox="0 0 46 33" fill="none" xmlns="http://www.w3.org/2000/svg">
<rect x="1.32959" y="1.11328" width="44" height="30.7647" rx="4.79412" fill="#1A1A1A" stroke="#333333"/>
<path fill-rule="evenodd" clip-rule="evenodd" d="M15.0575 21.6021H12.3313L10.2871 13.5738C10.19 13.2045 9.98402 12.878 9.68097 12.7241C8.92467 12.3374 8.09128 12.0297 7.18213 11.8744V11.5653H11.5737C12.1798 11.5653 12.6344 12.0297 12.7101 12.5689L13.7708 18.36L16.4956 11.5653H19.146L15.0575 21.6021ZM20.661 21.6021H18.0864L20.2064 11.5653H22.781L20.661 21.6021ZM26.1119 14.346C26.1877 13.8054 26.6423 13.4963 27.1726 13.4963C28.006 13.4187 28.9138 13.5739 29.6715 13.9593L30.126 11.7983C29.3684 11.4892 28.535 11.334 27.7787 11.334C25.2799 11.334 23.4616 12.7242 23.4616 14.6537C23.4616 16.1216 24.7495 16.8923 25.6587 17.3566C26.6423 17.8196 27.0211 18.1287 26.9453 18.5916C26.9453 19.2861 26.1877 19.5952 25.4314 19.5952C24.5222 19.5952 23.6131 19.3637 22.781 18.977L22.3265 21.1393C23.2356 21.5247 24.2192 21.6799 25.1283 21.6799C27.9302 21.7561 29.6715 20.3672 29.6715 18.2825C29.6715 15.6573 26.1119 15.5034 26.1119 14.346ZM38.6824 21.6021L36.6381 11.5653H34.4423C33.9878 11.5653 33.5332 11.8744 33.3817 12.3374L29.5962 21.6021H32.2465L32.7756 20.1356H36.032L36.3351 21.6021H38.6824ZM34.8206 14.2686L35.5769 18.0513H33.4569L34.8206 14.2686Z" fill="white"/>
</svg>
