<svg width="46" height="33" viewBox="0 0 46 33" fill="none" xmlns="http://www.w3.org/2000/svg">
<rect x="1.32959" y="1.11328" width="44" height="30.7647" rx="4.79412" fill="#1A1A1A" stroke="#333333"/>
<path fill-rule="evenodd" clip-rule="evenodd" d="M29.3875 25.0058C34.3439 25.0058 38.3619 21.0356 38.3619 16.1382C38.3619 11.2407 34.3439 7.27051 29.3875 7.27051C27.1662 7.27051 25.1335 8.06788 23.5664 9.38875C21.9993 8.06798 19.9666 7.27067 17.7454 7.27067C12.789 7.27067 8.771 11.2408 8.771 16.1383C8.771 21.0358 12.789 25.006 17.7454 25.006C19.9667 25.006 21.9994 24.2086 23.5666 22.8877C25.1336 24.2085 27.1663 25.0058 29.3875 25.0058Z" fill="#ED0006"/>
<path fill-rule="evenodd" clip-rule="evenodd" d="M23.5669 22.8873C25.4964 21.2608 26.7199 18.8406 26.7199 16.1382C26.7199 13.4357 25.4964 11.0155 23.5669 9.38904C25.134 8.068 27.1669 7.27051 29.3884 7.27051C34.3448 7.27051 38.3628 11.2407 38.3628 16.1382C38.3628 21.0356 34.3448 25.0058 29.3884 25.0058C27.1669 25.0058 25.134 24.2083 23.5669 22.8873Z" fill="#F9A000"/>
<path fill-rule="evenodd" clip-rule="evenodd" d="M23.5664 22.8874C25.4961 21.261 26.7197 18.8407 26.7197 16.1381C26.7197 13.4354 25.4961 11.0152 23.5664 9.38867C21.6367 11.0152 20.4131 13.4354 20.4131 16.1381C20.4131 18.8407 21.6367 21.261 23.5664 22.8874Z" fill="#FF5E00"/>
</svg>
