<svg width="46" height="44" viewBox="0 0 46 44" fill="none" xmlns="http://www.w3.org/2000/svg">
<path d="M15.1735 13.292L1.88186 15.2191L1.64644 15.267C1.29007 15.3616 0.965184 15.5491 0.70497 15.8103C0.444756 16.0716 0.258535 16.3972 0.165324 16.7539C0.0721126 17.1107 0.0752511 17.4858 0.174418 17.8409C0.273586 18.196 0.465229 18.5185 0.729778 18.7753L10.3589 28.1482L8.08811 41.3878L8.06103 41.617C8.03921 41.9856 8.11575 42.3533 8.2828 42.6826C8.44985 43.0119 8.70141 43.2909 9.01173 43.491C9.32204 43.6911 9.67996 43.8051 10.0488 43.8214C10.4177 43.8377 10.7843 43.7556 11.111 43.5837L22.9985 37.3337L34.8589 43.5837L35.0673 43.6795C35.4112 43.8149 35.7849 43.8565 36.1501 43.7998C36.5153 43.7432 36.8589 43.5904 37.1456 43.3571C37.4323 43.1239 37.6518 42.8186 37.7815 42.4725C37.9113 42.1264 37.9466 41.7521 37.8839 41.3878L35.611 28.1482L45.2444 18.7732L45.4069 18.5962C45.639 18.3103 45.7912 17.9679 45.8479 17.6041C45.9047 17.2402 45.864 16.8678 45.73 16.5248C45.5959 16.1817 45.3734 15.8804 45.085 15.6514C44.7965 15.4224 44.4526 15.2739 44.0881 15.2212L30.7964 13.292L24.8548 1.25033C24.6829 0.90144 24.4167 0.60765 24.0864 0.402211C23.7562 0.196773 23.375 0.0878906 22.986 0.0878906C22.5971 0.0878906 22.2159 0.196773 21.8856 0.402211C21.5554 0.60765 21.2892 0.90144 21.1173 1.25033L15.1735 13.292Z" fill="url(#paint0_linear_9867_18592)"/>
<defs>
<linearGradient id="paint0_linear_9867_18592" x1="22.9852" y1="0.0878906" x2="22.9852" y2="43.8244" gradientUnits="userSpaceOnUse">
<stop stop-color="#FB8E48"/>
<stop offset="1" stop-color="#CB380F"/>
</linearGradient>
</defs>
</svg>
