<svg width="27" height="27" viewBox="0 0 27 27" fill="none" xmlns="http://www.w3.org/2000/svg">
<rect x="0.82959" y="0.496094" width="26" height="26" rx="13" fill="#FF0000"/>
<path d="M22.7336 9.03087C22.5194 8.23532 21.8921 7.60806 21.0966 7.39387C19.6431 6.99609 13.8295 6.99609 13.8295 6.99609C13.8295 6.99609 8.01586 6.99609 6.56244 7.37857C5.78219 7.59276 5.13963 8.23532 4.92545 9.03087C4.54297 10.4843 4.54297 13.4982 4.54297 13.4982C4.54297 13.4982 4.54297 16.5274 4.92545 17.9655C5.13963 18.7611 5.76689 19.3883 6.56244 19.6025C8.03116 20.0003 13.8295 20.0003 13.8295 20.0003C13.8295 20.0003 19.6431 20.0003 21.0966 19.6178C21.8921 19.4036 22.5194 18.7764 22.7336 17.9808C23.116 16.5274 23.116 13.5135 23.116 13.5135C23.116 13.5135 23.1313 10.4843 22.7336 9.03087Z" fill="white"/>
<path d="M11.9785 16.2827L16.813 13.4983L11.9785 10.7139V16.2827Z" fill="#FF0000"/>
</svg>
