<svg width="27" height="27" viewBox="0 0 27 27" fill="none" xmlns="http://www.w3.org/2000/svg">
<rect x="0.82959" y="0.496094" width="26" height="26" rx="13" fill="#BD081C"/>
<path d="M13.8266 5.69629C9.51428 5.69629 6.02979 9.18719 6.02979 13.4931C6.02979 16.7979 8.08326 19.6214 10.9838 20.7572C10.9132 20.1412 10.8555 19.1915 11.0095 18.5177C11.1506 17.908 11.9207 14.6417 11.9207 14.6417C11.9207 14.6417 11.6897 14.1733 11.6897 13.4867C11.6897 12.4022 12.3186 11.5936 13.1014 11.5936C13.7688 11.5936 14.0897 12.0941 14.0897 12.6909C14.0897 13.3583 13.6661 14.3594 13.4415 15.2899C13.2555 16.0663 13.833 16.7016 14.5966 16.7016C15.9827 16.7016 17.048 15.2385 17.048 13.1337C17.048 11.2663 15.7068 9.96367 13.7881 9.96367C11.5678 9.96367 10.2651 11.6257 10.2651 13.3455C10.2651 14.0129 10.5218 14.7316 10.8426 15.123C10.9068 15.2 10.9132 15.2706 10.894 15.3476C10.8362 15.5915 10.7014 16.1241 10.6758 16.2332C10.6437 16.3744 10.5603 16.4065 10.4127 16.3359C9.4501 15.8738 8.8469 14.4492 8.8469 13.307C8.8469 10.8492 10.6308 8.5904 13.9998 8.5904C16.7014 8.5904 18.8063 10.5155 18.8063 13.0952C18.8063 15.784 17.1121 17.9466 14.7635 17.9466C13.9742 17.9466 13.2298 17.5359 12.9795 17.0482C12.9795 17.0482 12.5881 18.5369 12.4918 18.9027C12.3186 19.5829 11.8437 20.43 11.5228 20.9498C12.2544 21.1744 13.0244 21.2963 13.833 21.2963C18.1389 21.2963 21.6298 17.8054 21.6298 13.4995C21.6234 9.18719 18.1325 5.69629 13.8266 5.69629Z" fill="white"/>
</svg>
