<svg width="27" height="27" viewBox="0 0 27 27" fill="none" xmlns="http://www.w3.org/2000/svg">
<path d="M13.8296 26.4961C21.0093 26.4961 26.8296 20.6758 26.8296 13.4961C26.8296 6.31639 21.0093 0.496094 13.8296 0.496094C6.64989 0.496094 0.82959 6.31639 0.82959 13.4961C0.82959 20.6758 6.64989 26.4961 13.8296 26.4961Z" fill="#FF4500"/>
<path d="M22.4963 13.4966C22.4963 12.4474 21.6448 11.596 20.5957 11.596C20.0787 11.596 19.6226 11.7936 19.2881 12.1281C17.9957 11.2007 16.2015 10.5925 14.2249 10.5164L15.0916 6.4568L17.9045 7.04978C17.9349 7.7644 18.5279 8.34218 19.2577 8.34218C20.0027 8.34218 20.6109 7.73399 20.6109 6.98896C20.6109 6.24393 20.0027 5.63574 19.2577 5.63574C18.7255 5.63574 18.2694 5.93984 18.0565 6.39598L14.9091 5.72697C14.8179 5.71177 14.7267 5.72697 14.6507 5.77258C14.5746 5.8182 14.529 5.89422 14.4986 5.98545L13.5407 10.5164C11.5185 10.5773 9.70915 11.1702 8.40155 12.1281C8.06704 11.8088 7.5957 11.596 7.09394 11.596C6.04482 11.596 5.19336 12.4474 5.19336 13.4966C5.19336 14.272 5.6495 14.9258 6.31851 15.2299C6.2881 15.4124 6.27289 15.61 6.27289 15.8077C6.27289 18.727 9.66354 21.0837 13.86 21.0837C18.0565 21.0837 21.4472 18.727 21.4472 15.8077C21.4472 15.61 21.432 15.4276 21.4015 15.2451C22.0249 14.941 22.4963 14.272 22.4963 13.4966ZM9.49628 14.8498C9.49628 14.1047 10.1045 13.4966 10.8495 13.4966C11.5945 13.4966 12.2027 14.1047 12.2027 14.8498C12.2027 15.5948 11.5945 16.203 10.8495 16.203C10.1045 16.203 9.49628 15.5948 9.49628 14.8498ZM17.053 18.4229C16.1255 19.3504 14.3618 19.4112 13.8448 19.4112C13.3279 19.4112 11.5489 19.3352 10.6366 18.4229C10.4998 18.286 10.4998 18.058 10.6366 17.9211C10.7735 17.7843 11.0015 17.7843 11.1384 17.9211C11.7162 18.4989 12.963 18.7118 13.86 18.7118C14.7571 18.7118 15.9887 18.4989 16.5817 17.9211C16.7185 17.7843 16.9466 17.7843 17.0834 17.9211C17.1899 18.0732 17.1899 18.286 17.053 18.4229ZM16.8097 16.203C16.0647 16.203 15.4565 15.5948 15.4565 14.8498C15.4565 14.1047 16.0647 13.4966 16.8097 13.4966C17.5548 13.4966 18.1629 14.1047 18.1629 14.8498C18.1629 15.5948 17.5548 16.203 16.8097 16.203Z" fill="white"/>
</svg>
