<svg width="27" height="27" viewBox="0 0 27 27" fill="none" xmlns="http://www.w3.org/2000/svg">
<rect x="0.82959" y="0.496094" width="26" height="26" rx="13" fill="url(#paint0_linear_10205_50273)"/>
<path d="M5.94385 21.0593L7.05853 17.0115C6.36938 15.8235 6.00787 14.478 6.01163 13.1025C6.01163 8.79238 9.53643 5.28809 13.8633 5.28809C15.9647 5.28809 17.9379 6.10138 19.4179 7.57806C20.9016 9.05473 21.7188 11.0186 21.715 13.1062C21.715 17.4163 18.1902 20.9206 13.8596 20.9206H13.8558C12.5415 20.9206 11.2499 20.5908 10.1013 19.9686L5.94385 21.0593ZM10.3009 18.5557L10.5381 18.6981C11.5398 19.2903 12.6884 19.6014 13.8596 19.6051H13.8633C17.4597 19.6051 20.3895 16.693 20.3895 13.11C20.3895 11.3747 19.7116 9.74435 18.4802 8.51504C17.2488 7.28572 15.6069 6.6111 13.8633 6.6111C10.267 6.60735 7.3372 9.51948 7.3372 13.1025C7.3372 14.328 7.67988 15.5236 8.33513 16.5581L8.48953 16.8054L7.83052 19.2003L10.3009 18.5557Z" fill="white"/>
<path d="M6.21875 20.7855L7.29577 16.8765C6.62922 15.7334 6.279 14.4328 6.279 13.1061C6.28277 8.94589 9.68329 5.56152 13.8633 5.56152C15.8931 5.56152 17.7948 6.34858 19.2258 7.77279C20.6568 9.197 21.4439 11.0934 21.4439 13.1098C21.4439 17.27 18.0396 20.6544 13.8633 20.6544H13.8596C12.5905 20.6544 11.344 20.3358 10.2369 19.7361L6.21875 20.7855Z" fill="url(#paint1_linear_10205_50273)"/>
<path d="M5.94385 21.0593L7.05853 17.0115C6.36938 15.8235 6.00787 14.478 6.01163 13.1025C6.01163 8.79238 9.53643 5.28809 13.8633 5.28809C15.9647 5.28809 17.9379 6.10138 19.4179 7.57806C20.9016 9.05473 21.7188 11.0186 21.715 13.1062C21.715 17.4163 18.1902 20.9206 13.8596 20.9206H13.8558C12.5415 20.9206 11.2499 20.5908 10.1013 19.9686L5.94385 21.0593ZM10.3009 18.5557L10.5381 18.6981C11.5398 19.2903 12.6884 19.6014 13.8596 19.6051H13.8633C17.4597 19.6051 20.3895 16.693 20.3895 13.11C20.3895 11.3747 19.7116 9.74435 18.4802 8.51504C17.2488 7.28572 15.6069 6.6111 13.8633 6.6111C10.267 6.60735 7.3372 9.51948 7.3372 13.1025C7.3372 14.328 7.67988 15.5236 8.33513 16.5581L8.48953 16.8054L7.83052 19.2003L10.3009 18.5557Z" fill="url(#paint2_linear_10205_50273)"/>
<path fill-rule="evenodd" clip-rule="evenodd" d="M11.9015 9.83422C11.7546 9.50816 11.6002 9.50066 11.4609 9.49691C11.3479 9.49316 11.2161 9.49316 11.0843 9.49316C10.9525 9.49316 10.7416 9.54189 10.5609 9.73678C10.3801 9.93167 9.87549 10.4039 9.87549 11.3671C9.87549 12.3266 10.5797 13.2561 10.6776 13.3872C10.7755 13.5184 12.0371 15.5535 14.0292 16.3368C15.6861 16.989 16.025 16.8578 16.3828 16.8241C16.7406 16.7903 17.5427 16.3518 17.7084 15.8946C17.8703 15.4373 17.8703 15.0476 17.8213 14.9651C17.7724 14.8827 17.6406 14.8339 17.4448 14.7365C17.2489 14.639 16.2849 14.1668 16.1041 14.0993C15.9234 14.0356 15.7916 14.0019 15.6635 14.1968C15.5317 14.3917 15.1551 14.8302 15.0422 14.9614C14.9292 15.0925 14.8125 15.1075 14.6166 15.0101C14.4208 14.9126 13.7882 14.7065 13.0388 14.0394C12.4551 13.5222 12.0597 12.8813 11.9467 12.6864C11.8337 12.4915 11.9354 12.3866 12.0333 12.2891C12.1199 12.2029 12.2291 12.0605 12.327 11.948C12.4249 11.8356 12.4588 11.7532 12.5228 11.622C12.5869 11.4908 12.5567 11.3784 12.5078 11.2809C12.4588 11.1872 12.0747 10.2203 11.9015 9.83422Z" fill="white"/>
<defs>
<linearGradient id="paint0_linear_10205_50273" x1="13.8289" y1="26.4948" x2="13.8289" y2="0.495184" gradientUnits="userSpaceOnUse">
<stop stop-color="#20B038"/>
<stop offset="1" stop-color="#60D66A"/>
</linearGradient>
<linearGradient id="paint1_linear_10205_50273" x1="13.8309" y1="20.7848" x2="13.8309" y2="5.56099" gradientUnits="userSpaceOnUse">
<stop stop-color="#20B038"/>
<stop offset="1" stop-color="#60D66A"/>
</linearGradient>
<linearGradient id="paint2_linear_10205_50273" x1="13.831" y1="21.0578" x2="13.831" y2="5.28809" gradientUnits="userSpaceOnUse">
<stop stop-color="#F9F9F9"/>
<stop offset="1" stop-color="white"/>
</linearGradient>
</defs>
</svg>
